<svg id="SvgjsSvg1149" width="288" height="288" xmlns="http://www.w3.org/2000/svg" version="1.1" xmlns:xlink="http://www.w3.org/1999/xlink" xmlns:svgjs="http://svgjs.com/svgjs"><defs id="SvgjsDefs1150"></defs><g id="SvgjsG1151"><svg xmlns="http://www.w3.org/2000/svg" viewBox="0 0 500 500" width="288" height="288"><rect width="500" height=".25" y="382.4" fill="#ebebeb" class="colorebebeb svgShape"></rect><rect width="33.12" height=".25" x="416.78" y="398.49" fill="#ebebeb" class="colorebebeb svgShape"></rect><rect width="8.69" height=".25" x="322.53" y="401.21" fill="#ebebeb" class="colorebebeb svgShape"></rect><rect width="19.19" height=".25" x="396.59" y="389.21" fill="#ebebeb" class="colorebebeb svgShape"></rect><rect width="43.19" height=".25" x="52.46" y="390.89" fill="#ebebeb" class="colorebebeb svgShape"></rect><rect width="6.33" height=".25" x="104.56" y="390.89" fill="#ebebeb" class="colorebebeb svgShape"></rect><rect width="93.68" height=".25" x="131.47" y="395.11" fill="#ebebeb" class="colorebebeb svgShape"></rect><path fill="#ebebeb" d="M237 337.8H43.91a5.71 5.71 0 01-5.7-5.71V60.66A5.71 5.71 0 0143.91 55H237a5.71 5.71 0 015.71 5.71V332.09A5.71 5.71 0 01237 337.8zM43.91 55.2a5.46 5.46 0 00-5.45 5.46V332.09a5.46 5.46 0 005.45 5.46H237a5.47 5.47 0 005.46-5.46V60.66A5.47 5.47 0 00237 55.2zM453.31 337.8H260.21a5.72 5.72 0 01-5.71-5.71V60.66A5.72 5.72 0 01260.21 55h193.1A5.71 5.71 0 01459 60.66V332.09A5.71 5.71 0 01453.31 337.8zM260.21 55.2a5.47 5.47 0 00-5.46 5.46V332.09a5.47 5.47 0 005.46 5.46h193.1a5.47 5.47 0 005.46-5.46V60.66a5.47 5.47 0 00-5.46-5.46z" class="colorebebeb svgShape"></path><rect width="164.45" height="145.92" x="279.75" y="74.65" fill="#e6e6e6" class="colore6e6e6 svgShape"></rect><rect width="156" height="138" x="283.86" y="78.65" fill="#f0f0f0" class="colorf0f0f0 svgShape"></rect><polygon fill="#ffffff" points="320.48 78.65 283.86 216.35 283.86 151.65 303.19 78.65 320.48 78.65" class="colorfff svgShape"></polygon><polygon fill="#ffffff" points="333.44 78.65 296.51 216.65 290.62 216.65 327.55 78.65 333.44 78.65" class="colorfff svgShape"></polygon><polygon fill="#ffffff" points="439.86 165.73 439.86 187.78 432.39 216.65 426.5 216.65 439.86 165.73" class="colorfff svgShape"></polygon><rect width="2.63" height="143.56" x="335.65" y="76.17" fill="#e6e6e6" class="colore6e6e6 svgShape"></rect><rect width="2.63" height="143.56" x="386.57" y="76.17" fill="#e6e6e6" class="colore6e6e6 svgShape"></rect><rect width="90.67" height="81.31" x="52.46" y="301.05" fill="#f5f5f5" class="colorf5f5f5 svgShape"></rect><rect width="31.56" height="81.31" x="52.46" y="301.05" fill="#ebebeb" class="colorebebeb svgShape"></rect><rect width="90.67" height="81.31" x="70.5" y="221.41" fill="#ebebeb" class="colorebebeb svgShape"></rect><rect width="31.56" height="81.31" x="70.5" y="221.41" fill="#e0e0e0" class="colore0e0e0 svgShape"></rect><rect width="90.67" height="81.31" x="52.46" y="140.34" fill="#f5f5f5" class="colorf5f5f5 svgShape"></rect><rect width="31.56" height="81.31" x="52.46" y="140.34" fill="#ebebeb" class="colorebebeb svgShape"></rect><rect width="90.67" height="81.31" x="151.13" y="301.12" fill="#ebebeb" class="colorebebeb svgShape"></rect><rect width="31.56" height="81.31" x="151.13" y="301.12" fill="#e0e0e0" class="colore0e0e0 svgShape"></rect><rect width="90.67" height="50.93" x="161.17" y="251.87" fill="#f5f5f5" class="colorf5f5f5 svgShape"></rect><rect width="31.56" height="50.93" x="161.17" y="251.87" fill="#e6e6e6" class="colore6e6e6 svgShape"></rect><rect width="58.58" height="81.31" x="154.13" y="171.41" fill="#ebebeb" class="colorebebeb svgShape"></rect><rect width="20.39" height="81.31" x="154.13" y="171.41" fill="#e0e0e0" class="colore0e0e0 svgShape"></rect><rect width="90.67" height="81.31" x="346.51" y="301.19" fill="#f5f5f5" transform="rotate(180 391.845 341.85)" class="colorf5f5f5 svgShape"></rect><rect width="31.56" height="81.31" x="405.63" y="301.19" fill="#e6e6e6" transform="rotate(180 421.405 341.85)" class="colore6e6e6 svgShape"></rect><rect width="90.67" height="66.19" x="328.47" y="236.68" fill="#ebebeb" transform="rotate(180 373.8 269.775)" class="colorebebeb svgShape"></rect><rect width="31.56" height="66.19" x="387.58" y="236.68" fill="#e0e0e0" transform="rotate(180 403.36 269.775)" class="colore0e0e0 svgShape"></rect><rect width="87.44" height="32.4" x="349.75" y="204.28" fill="#f5f5f5" transform="rotate(180 393.465 220.48)" class="colorf5f5f5 svgShape"></rect><rect width="30.43" height="32.4" x="406.75" y="204.28" fill="#e6e6e6" transform="rotate(180 421.97 220.48)" class="colore6e6e6 svgShape"></rect><g fill="#000000" class="color000 svgShape"><ellipse cx="250" cy="416.24" fill="#f5f5f5" rx="193.89" ry="11.32" class="colorf5f5f5 svgShape"></ellipse></g><g fill="#000000" class="color000 svgShape"><path fill="#e4897b" d="M225.75,226.47,206,228.23l-7.92-4.47s-25.4-14.15-32-18.62c-2-1.37-3.87-4.35-5.48-7.85a79.06,79.06,0,0,1-3.48-9.23c-.45-1.41-.85-2.76-1.19-4-.76-2.67-1.23-4.67-1.36-5.21h0a.49.49,0,0,0,0-.13h0l.05,0,6.26-2,5.23-1.66s.24,1.24.65,3.13l.36,1.67c.11.48.22,1,.34,1.52,1.32,5.82,3.35,13.76,4.82,15.06,2.37,2.09,32.17,22.4,33.23,22.93s10.55,0,10.55,0Z" class="colore4897b svgShape"></path><path fill="#d94fd3" d="M154.41,150.68c9.1-.14,14.89,28.06,14.89,28.06l-12,6a38.42,38.42,0,0,1-5.15-19.42C152.43,154.5,154.41,150.68,154.41,150.68Z" class="color4285f4 svgShape"></path><path fill="#ffffff" d="M154.41,150.68c9.1-.14,14.89,28.06,14.89,28.06l-12,6a38.42,38.42,0,0,1-5.15-19.42C152.43,154.5,154.41,150.68,154.41,150.68Z" opacity=".5" class="colorfff svgShape"></path><polygon fill="#d94fd3" points="170.63 179.29 167.39 181.39 163.16 184.13 157.08 188.06 155.99 188.77 154.67 184.76 155.89 184.1 156.69 183.66 162.25 180.63 166.69 178.2 168.91 176.99 169.3 176.78 170.63 179.29" class="color4285f4 svgShape"></polygon><path style="isolation:isolate" d="M163.7,188.77a12.92,12.92,0,0,1-3.14,8.52,79.06,79.06,0,0,1-3.48-9.23l-1.09.71-1.32-4,1.22-.66c-.76-2.67-1.23-4.67-1.36-5.21h0v-.16l1.44-11a53.58,53.58,0,0,1,4.82,9c.52,1.23,1,2.54,1.44,3.9q.23.7.42,1.44c.19.68.35,1.37.49,2.06A26,26,0,0,1,163.7,188.77Z" opacity=".2" fill="#000000" class="color000 svgShape"></path><polygon fill="#e4897b" points="153.05 409.36 161.42 410.25 162.99 392.2 154.62 391.31 153.05 409.36" class="colore4897b svgShape"></polygon><polygon fill="#e4897b" points="111.3 408.75 119.4 408.75 120.07 389.97 111.96 389.97 111.3 408.75" class="colore4897b svgShape"></polygon><path fill="#263238" d="M120.53,407.81h-9.85a.72.72,0,0,0-.69.56l-1.6,7.22a1.19,1.19,0,0,0,.92,1.42.78.78,0,0,0,.26,0c3.19,0,5.51-.24,9.51-.24,2.47,0,9.91.25,13.31.25s3.85-3.36,2.45-3.67c-6.25-1.36-11-3.25-13-5A2,2,0,0,0,120.53,407.81Z" class="color263238 svgShape"></path><path fill="#d94fd3" d="M121.09,408.94a.2.2,0,0,1-.15-.17.18.18,0,0,1,.09-.18c.29-.19,2.91-1.8,3.81-1.33a.55.55,0,0,1,.33.53,1.15,1.15,0,0,1-.4,1,2.41,2.41,0,0,1-1.56.42A9.43,9.43,0,0,1,121.09,408.94Zm.55-.27a3.91,3.91,0,0,0,2.89-.15.81.81,0,0,0,.26-.69c0-.15-.07-.22-.13-.22a.4.4,0,0,0-.24-.05A7.81,7.81,0,0,0,121.64,408.67Z" class="color4285f4 svgShape"></path><path fill="#d94fd3" d="M121,409a.21.21,0,0,1-.09-.18c0-.11.21-2.44,1.15-3.2a1,1,0,0,1,.81-.25.63.63,0,0,1,.62.5c.16.86-1.46,2.64-2.29,3.1h-.09A.2.2,0,0,1,121,409Zm1.3-3.16a4.62,4.62,0,0,0-1,2.54c.84-.63,1.87-2,1.77-2.51,0-.05,0-.19-.28-.19h-.09A.7.7,0,0,0,122.33,405.82Z" class="color4285f4 svgShape"></path><path fill="#263238" d="M162.3,407.56h-9.85a.71.71,0,0,0-.69.55l-1.6,7.22a1.2,1.2,0,0,0,.92,1.42l.27,0c3.18-.06,5.5-.25,9.51-.25,2.46,0,9.9.26,13.3.26s3.85-3.37,2.46-3.68c-6.25-1.36-11-3.24-13-5A2,2,0,0,0,162.3,407.56Z" class="color263238 svgShape"></path><path fill="#d94fd3" d="M162.86,408.68a.2.2,0,0,1-.15-.17.17.17,0,0,1,.1-.18c.29-.19,2.91-1.8,3.8-1.33a.57.57,0,0,1,.33.53,1.14,1.14,0,0,1-.4,1A2.47,2.47,0,0,1,165,409,9.51,9.51,0,0,1,162.86,408.68Zm.55-.27a4,4,0,0,0,2.89-.14.8.8,0,0,0,.26-.69c0-.16-.07-.23-.12-.23a.43.43,0,0,0-.25-.05A8,8,0,0,0,163.41,408.41Z" class="color4285f4 svgShape"></path><path fill="#d94fd3" d="M162.81,408.72a.21.21,0,0,1-.1-.17c0-.12.21-2.45,1.15-3.21a1,1,0,0,1,.81-.25.63.63,0,0,1,.62.51c.17.85-1.45,2.64-2.29,3.09h-.09A.19.19,0,0,1,162.81,408.72Zm1.3-3.16a4.54,4.54,0,0,0-1,2.54c.83-.63,1.86-2,1.76-2.5,0-.06,0-.2-.28-.2h-.09A.67.67,0,0,0,164.11,405.56Z" class="color4285f4 svgShape"></path><polygon style="isolation:isolate" points="154.62 391.31 162.99 392.2 162.17 401.51 153.8 400.62 154.62 391.31" opacity=".2" fill="#000000" class="color000 svgShape"></polygon><polygon style="isolation:isolate" points="111.96 389.98 120.07 389.98 119.72 399.67 111.61 399.67 111.96 389.98" opacity=".2" fill="#000000" class="color000 svgShape"></polygon><path fill="#d94fd3" d="M115.3,225.22h43c4.09,22.35,16.9,101.42,7.71,171.87l-14.57-1.81s1.35-93.53-11.51-128.1c-1.48,18.5-3.24,38.19-4.76,48.67C131.46,341.63,123.45,398,123.45,398H108.62s3-53.94,4.43-79.29C114.58,291.19,115.25,230.87,115.3,225.22Z" class="color4285f4 svgShape"></path><path style="isolation:isolate" d="M140,267.18a115.13,115.13,0,0,1,4.81,18.62c1.2-16.47-3.61-33.93-3.61-33.93Z" opacity=".2" fill="#000000" class="color000 svgShape"></path><polygon fill="#d94fd3" points="167.72 400.48 149.69 397.8 150.24 392.81 168.99 395.27 167.72 400.48" class="color4285f4 svgShape"></polygon><polygon fill="#ffffff" style="isolation:isolate" points="167.72 400.48 149.69 397.8 150.24 392.81 168.99 395.27 167.72 400.48" opacity=".6" class="colorfff svgShape"></polygon><polygon fill="#d94fd3" points="125.23 398.11 107.74 398.11 107.74 392.88 125.89 392.54 125.23 398.11" class="color4285f4 svgShape"></polygon><polygon fill="#ffffff" style="isolation:isolate" points="125.23 398.11 107.74 398.11 107.74 392.88 125.89 392.54 125.23 398.11" opacity=".6" class="colorfff svgShape"></polygon><polygon fill="#263238" points="115.22 232.7 115.18 226.47 159.04 223.76 159.35 229.8 115.22 232.7" class="color263238 svgShape"></polygon><rect width="1.98" height="9.13" x="124.34" y="224.89" fill="#d94fd3" class="color4285f4 svgShape"></rect><rect width="1.98" height="9.13" x="155" y="221.9" fill="#d94fd3" transform="rotate(-4.17 156.223 226.684)" class="color4285f4 svgShape"></rect><path fill="#d94fd3" d="M159,223.76,115.18,227c0-3.84-.1-8.12-.39-12.64-.54-8.35-1.57-17.49-2.72-26.06-2.44-18.21-5.43-33.84-5.43-33.84,20.4-5.15,47.77-3.81,47.77-3.81C161.52,177.29,159,223.76,159,223.76Z" class="color4285f4 svgShape"></path><path fill="#ffffff" d="M159,223.76,115.18,227c0-3.84-.1-8.12-.39-12.64-.54-8.35-1.57-17.49-2.72-26.06-2.44-18.21-5.43-33.84-5.43-33.84,20.4-5.15,47.77-3.81,47.77-3.81C161.52,177.29,159,223.76,159,223.76Z" opacity=".6" class="colorfff svgShape"></path><path fill="#e4897b" d="M122.21,151.73c4,3.59,13.63,2.27,13.63,2.27s6-1.66,4.77-3.55c-3.56-.58-5.28-2.24-6-4.37a10.08,10.08,0,0,1-.36-4.06,19.32,19.32,0,0,1,.3-2.27l-12-8.86C124.16,136.74,126.08,147.49,122.21,151.73Z" class="colore4897b svgShape"></path><path style="isolation:isolate" d="M125.36,136.52c.47,7.18,6.37,9.16,9.26,9.56a10.08,10.08,0,0,1-.36-4.06Z" opacity=".2" fill="#000000" class="color000 svgShape"></path><path fill="#263238" d="M146,113.83c2.91,2.76,1.7,11.17-4.23,15.47s-5.93-16.5-5.93-16.5S144.15,112.07,146,113.83Z" class="color263238 svgShape"></path><path fill="#e4897b" d="M124.55,138.18a10.14,10.14,0,0,0,11.65,3.93,11.28,11.28,0,0,0,6.44-5.25,11.89,11.89,0,0,0,.54-1.07C146.1,129,147,117,139.81,112.54A11,11,0,0,0,124.66,116a11.13,11.13,0,0,0-1.65,4.84C122.13,128.8,121.23,133.46,124.55,138.18Z" class="colore4897b svgShape"></path><path fill="#263238" d="M134.65 125.09c-.15.63.14 1.22.57 1.29s.85-.4 1-1-.15-1.22-.56-1.29S134.77 124.44 134.65 125.09zM141.94 126.33c-.15.63.15 1.23.56 1.3s.86-.4 1-1-.15-1.23-.57-1.3S142.05 125.72 141.94 126.33z" class="color263238 svgShape"></path><path fill="#de5753" d="M139.57,126.25a23.13,23.13,0,0,0,2.14,6,3.77,3.77,0,0,1-3.2.05Z" class="colorde5753 svgShape"></path><path fill="#263238" d="M132.79 122.34a.44.44 0 00.4-.08 3.07 3.07 0 012.64-.86.38.38 0 00.46-.28.39.39 0 00-.28-.46h0a3.84 3.84 0 00-3.35 1 .39.39 0 000 .54h0A.49.49 0 00132.79 122.34zM136.89 135.5h0a5.85 5.85 0 01-4.77-2.6.2.2 0 01.07-.28.2.2 0 01.27.06v0a5.63 5.63 0 004.44 2.39.2.2 0 01.2.19v0a.2.2 0 01-.19.19zM145.5 124.35a.43.43 0 00.22.06.4.4 0 00.27-.47h0a3.78 3.78 0 00-2.36-2.59.38.38 0 00-.47.25h0a.39.39 0 00.25.48h0a3.09 3.09 0 011.84 2.08A.38.38 0 00145.5 124.35zM130.51 111.94v3.56a2.64 2.64 0 00-1.72 3.14c.77 3.1-1.46 7.48-3.95 9 0 0 .08-1.29-1-1.12s-1.63 6.88.09 10.31c0 0-2.84-3.26-3.78-10.48-.88-6.68-.42-12.1 1.21-14.44z" class="color263238 svgShape"></path><path fill="#e4897b" d="M118.45,126.72a7.66,7.66,0,0,0,3.66,4.55c2.36,1.27,4.13-.71,4-3.24-.16-2.26-1.56-5.7-4.18-5.9S117.77,124.33,118.45,126.72Z" class="colore4897b svgShape"></path><path fill="#263238" d="M119.75,118s-2.47-5.93,4-10.28,21.82.72,22.9,4.25S136.12,121.91,119.75,118Z" class="color263238 svgShape"></path><polygon fill="#d94fd3" points="123.72 148.04 133.51 153.4 134.85 146.08 141.71 150.54 141.71 159.89 134.45 155.56 129.35 163.2 119.28 152.14 123.72 148.04" class="color4285f4 svgShape"></polygon><rect width="10.04" height="7.54" x="137.28" y="224.23" fill="#ffffff" rx="1.16" transform="rotate(-3.17 142.163 227.809)" class="colorfff svgShape"></rect><polygon fill="#ffffff" points="123.72 148.04 133.51 153.4 134.85 146.08 141.71 150.54 141.71 159.89 134.45 155.56 129.35 163.2 119.28 152.14 123.72 148.04" opacity=".5" class="colorfff svgShape"></polygon><path style="isolation:isolate" d="M130.51,212.46c-2.91,4.38-12.22,4.35-15.72,1.93-.54-8.35-1.57-17.49-2.72-26.06Z" opacity=".2" fill="#000000" class="color000 svgShape"></path><path fill="#e4897b" d="M115.18,178.74s2.07,13.48,4.1,16.11,44,25.58,44,25.58l14.51-1.05,6.67,7.65s-19.33,3-21.44,2.42a20.35,20.35,0,0,1-3.73-1.44s-44-17.33-47.7-21.29-7.91-24.29-7.91-24.29Z" class="colore4897b svgShape"></path><path fill="#d94fd3" d="M106.64,154.49c7.68-1.6,11.65,30.27,11.65,30.27l-15.71,4S97.19,156.47,106.64,154.49Z" class="color4285f4 svgShape"></path><path fill="#ffffff" d="M106.64,154.49c7.68-1.6,11.65,30.27,11.65,30.27l-15.71,4S97.19,156.47,106.64,154.49Z" opacity=".5" class="colorfff svgShape"></path><polygon fill="#d94fd3" points="101.66 188 119.28 183.78 119.28 186.81 102.45 191.69 101.66 188" class="color4285f4 svgShape"></polygon></g><g fill="#000000" class="color000 svgShape"><path fill="none" stroke="#263238" stroke-linecap="round" stroke-linejoin="round" stroke-width="6" d="M162,387V249.92a29,29,0,0,0-5.21-16.59L152,226.47h85.1l4.79,6.86a29,29,0,0,1,5.21,16.59V385.7" class="colorStroke263238 svgStroke"></path><circle cx="342.85" cy="408.24" r="8.81" fill="#263238" class="color263238 svgShape"></circle><path fill="#ffffff" style="isolation:isolate" d="M347.26,408.24a4.41,4.41,0,1,0-4.41,4.4A4.4,4.4,0,0,0,347.26,408.24Z" opacity=".4" class="colorfff svgShape"></path><path fill="#263238" d="M341.79,410.2h0a3.36,3.36,0,0,1-3.15-2.2l-5.19-14.22h11.69v13.07A3.35,3.35,0,0,1,341.79,410.2Z" class="color263238 svgShape"></path><path fill="#ffffff" style="isolation:isolate" d="M341.79,410.2h0a3.36,3.36,0,0,1-3.15-2.2l-5.19-14.22h11.69v13.07A3.35,3.35,0,0,1,341.79,410.2Z" opacity=".2" class="colorfff svgShape"></path><circle cx="244.85" cy="408.24" r="8.81" fill="#263238" class="color263238 svgShape"></circle><path fill="#ffffff" style="isolation:isolate" d="M249.26,408.24a4.41,4.41,0,1,0-4.41,4.4A4.4,4.4,0,0,0,249.26,408.24Z" opacity=".4" class="colorfff svgShape"></path><path fill="#263238" d="M243.79,410.2h0a3.36,3.36,0,0,1-3.15-2.2l-5.19-14.22h11.69v13.07A3.35,3.35,0,0,1,243.79,410.2Z" class="color263238 svgShape"></path><path fill="#ffffff" style="isolation:isolate" d="M243.79,410.2h0a3.36,3.36,0,0,1-3.15-2.2l-5.19-14.22h11.69v13.07A3.35,3.35,0,0,1,243.79,410.2Z" opacity=".2" class="colorfff svgShape"></path><path fill="#263238" d="M358,383.53v8.32a2.81,2.81,0,0,1-2.81,2.81H158.26a2.81,2.81,0,0,1-2.81-2.81v-8.32Z" class="color263238 svgShape"></path><path fill="#ffffff" style="isolation:isolate" d="M358,383.53v8.32a2.81,2.81,0,0,1-2.81,2.81H158.26a2.81,2.81,0,0,1-2.81-2.81v-8.32Z" opacity=".4" class="colorfff svgShape"></path><path fill="#ffffff" style="isolation:isolate" d="M288,383.53v8.32a2.81,2.81,0,0,1-2.81,2.81H158.26a2.81,2.81,0,0,1-2.81-2.81v-8.32Z" opacity=".2" class="colorfff svgShape"></path><circle cx="271.85" cy="408.24" r="8.81" fill="#263238" class="color263238 svgShape"></circle><path fill="#ffffff" style="isolation:isolate" d="M276.26,408.24a4.41,4.41,0,1,0-4.41,4.4A4.4,4.4,0,0,0,276.26,408.24Z" opacity=".6" class="colorfff svgShape"></path><path fill="#263238" d="M270.79,410.2h0a3.36,3.36,0,0,1-3.15-2.2l-5.19-14.22h11.69v13.07A3.35,3.35,0,0,1,270.79,410.2Z" class="color263238 svgShape"></path><path fill="#ffffff" style="isolation:isolate" d="M270.79,410.2h0a3.36,3.36,0,0,1-3.15-2.2l-5.19-14.22h11.69v13.07A3.35,3.35,0,0,1,270.79,410.2Z" opacity=".4" class="colorfff svgShape"></path><circle cx="173.85" cy="408.24" r="8.81" fill="#263238" class="color263238 svgShape"></circle><path fill="#ffffff" style="isolation:isolate" d="M178.26,408.24a4.41,4.41,0,1,0-4.41,4.4A4.4,4.4,0,0,0,178.26,408.24Z" opacity=".6" class="colorfff svgShape"></path><path fill="#263238" d="M172.79,410.2h0a3.36,3.36,0,0,1-3.15-2.2l-5.19-14.22h11.69v13.07A3.35,3.35,0,0,1,172.79,410.2Z" class="color263238 svgShape"></path><path fill="#ffffff" style="isolation:isolate" d="M172.79,410.2h0a3.36,3.36,0,0,1-3.15-2.2l-5.19-14.22h11.69v13.07A3.35,3.35,0,0,1,172.79,410.2Z" opacity=".4" class="colorfff svgShape"></path><rect width="93.25" height="64.55" x="179.84" y="318.98" fill="#d94fd3" class="color4285f4 svgShape"></rect><rect style="isolation:isolate" width="93.25" height="64.55" x="179.84" y="318.98" fill="#ffffff" opacity=".4" class="colorfff svgShape"></rect><rect style="isolation:isolate" width="43.27" height="64.55" x="179.84" y="318.98" fill="#ffffff" opacity=".2" class="colorfff svgShape"></rect><rect style="isolation:isolate" width="7.25" height="9.23" x="212.69" y="369.88" opacity=".2" rx=".92" fill="#000000" class="color000 svgShape"></rect><rect style="isolation:isolate" width="7.25" height="9.23" x="202.93" y="369.88" opacity=".2" rx=".92" fill="#000000" class="color000 svgShape"></rect><rect style="isolation:isolate" width="5.27" height="6.73" x="247.77" y="318.98" opacity=".4" fill="#000000" class="color000 svgShape"></rect><rect style="isolation:isolate" width="36.3" height="8.44" x="231.15" y="346.54" opacity=".2" fill="#000000" class="color000 svgShape"></rect><rect style="isolation:isolate" width="12.41" height="12.41" x="182.66" y="322.34" opacity=".2" fill="#000000" class="color000 svgShape"></rect><rect width="93.25" height="64.55" x="189.36" y="254.43" fill="#d94fd3" class="color4285f4 svgShape"></rect><rect style="isolation:isolate" width="93.25" height="64.55" x="189.36" y="254.43" opacity=".4" fill="#000000" class="color000 svgShape"></rect><rect style="isolation:isolate" width="43.27" height="64.55" x="189.36" y="254.43" fill="#ffffff" opacity=".2" class="colorfff svgShape"></rect><rect style="isolation:isolate" width="7.25" height="9.23" x="222.22" y="305.33" opacity=".2" rx=".92" fill="#000000" class="color000 svgShape"></rect><rect style="isolation:isolate" width="7.25" height="9.23" x="212.46" y="305.33" opacity=".2" rx=".92" fill="#000000" class="color000 svgShape"></rect><rect style="isolation:isolate" width="5.27" height="6.73" x="257.29" y="254.43" opacity=".4" fill="#000000" class="color000 svgShape"></rect><rect style="isolation:isolate" width="36.3" height="8.44" x="240.67" y="281.99" opacity=".2" fill="#000000" class="color000 svgShape"></rect><rect style="isolation:isolate" width="12.41" height="12.41" x="192.19" y="257.79" opacity=".2" fill="#000000" class="color000 svgShape"></rect><rect width="93.25" height="64.55" x="246.44" y="254.43" fill="#d94fd3" class="color4285f4 svgShape"></rect><rect style="isolation:isolate" width="93.25" height="64.55" x="246.44" y="254.43" fill="#ffffff" opacity=".4" class="colorfff svgShape"></rect><rect style="isolation:isolate" width="43.27" height="64.55" x="246.44" y="254.43" fill="#ffffff" opacity=".2" class="colorfff svgShape"></rect><rect style="isolation:isolate" width="7.25" height="9.23" x="279.3" y="305.33" opacity=".2" rx=".92" fill="#000000" class="color000 svgShape"></rect><rect style="isolation:isolate" width="7.25" height="9.23" x="269.54" y="305.33" opacity=".2" rx=".92" fill="#000000" class="color000 svgShape"></rect><rect style="isolation:isolate" width="5.27" height="6.73" x="314.37" y="254.43" opacity=".4" fill="#000000" class="color000 svgShape"></rect><rect style="isolation:isolate" width="36.3" height="8.44" x="297.75" y="281.99" opacity=".2" fill="#000000" class="color000 svgShape"></rect><rect style="isolation:isolate" width="12.41" height="12.41" x="249.27" y="257.79" opacity=".2" fill="#000000" class="color000 svgShape"></rect><rect width="93.25" height="64.55" x="214.19" y="189.88" fill="#d94fd3" class="color4285f4 svgShape"></rect><rect style="isolation:isolate" width="43.27" height="64.55" x="214.19" y="189.88" fill="#ffffff" opacity=".2" class="colorfff svgShape"></rect><rect style="isolation:isolate" width="7.25" height="9.23" x="247.04" y="240.78" opacity=".2" rx=".92" fill="#000000" class="color000 svgShape"></rect><rect style="isolation:isolate" width="7.25" height="9.23" x="237.29" y="240.78" opacity=".2" rx=".92" fill="#000000" class="color000 svgShape"></rect><rect style="isolation:isolate" width="5.27" height="6.73" x="282.12" y="189.88" opacity=".4" fill="#000000" class="color000 svgShape"></rect><rect style="isolation:isolate" width="36.3" height="8.44" x="265.5" y="217.44" opacity=".2" fill="#000000" class="color000 svgShape"></rect><rect style="isolation:isolate" width="12.41" height="12.41" x="217.01" y="193.24" opacity=".2" fill="#000000" class="color000 svgShape"></rect><rect width="93.25" height="64.55" x="239.18" y="318.98" fill="#263238" class="color263238 svgShape"></rect><rect style="isolation:isolate" width="93.25" height="64.55" x="239.18" y="318.98" fill="#ffffff" opacity=".2" class="colorfff svgShape"></rect><rect style="isolation:isolate" width="43.27" height="64.55" x="239.18" y="318.98" fill="#ffffff" opacity=".2" class="colorfff svgShape"></rect><rect style="isolation:isolate" width="7.25" height="9.23" x="272.03" y="369.88" opacity=".2" rx=".92" fill="#000000" class="color000 svgShape"></rect><rect style="isolation:isolate" width="7.25" height="9.23" x="262.27" y="369.88" opacity=".2" rx=".92" fill="#000000" class="color000 svgShape"></rect><rect style="isolation:isolate" width="5.27" height="6.73" x="307.11" y="318.98" opacity=".4" fill="#000000" class="color000 svgShape"></rect><rect style="isolation:isolate" width="36.3" height="8.44" x="290.49" y="346.54" opacity=".2" fill="#000000" class="color000 svgShape"></rect><rect style="isolation:isolate" width="12.41" height="12.41" x="242" y="322.34" opacity=".2" fill="#000000" class="color000 svgShape"></rect></g></svg></g></svg>